<svg id="Layer_1" data-name="Layer 1" xmlns="http://www.w3.org/2000/svg" viewBox="0 0 25 20"><title>cart</title><path d="M22.57,18.21c.41-2,.84-4,1.26-6,.22-1.06.45-2.12.66-3.17.17-.84-.21-1.29-1.08-1.3-.49,0-1,0-1.47,0a.92.92,0,0,1-.76-.32L14.52.73a2.2,2.2,0,0,0-.27-.26.58.58,0,0,0-.82.06.52.52,0,0,0,0,.78l.25.26L19.43,7.3l.37.39H5.56l-.11-.13a4,4,0,0,0,.4-.28L11.16,2c.22-.23.46-.45.67-.69a.52.52,0,0,0,0-.78.57.57,0,0,0-.79,0,1.59,1.59,0,0,0-.29.29Q7.4,4.08,4.07,7.42a.93.93,0,0,1-.72.3c-.61,0-1.23,0-1.84,0A.94.94,0,0,0,.51,9q1,4.67,1.94,9.33a1.6,1.6,0,0,0,1.72,1.39H20.82A1.63,1.63,0,0,0,22.57,18.21ZM13.13,8.92h4.44v2.26H13.13Zm0,3.49h4.44v2.77H13.12ZM1.73,8.9H6.26v2.28H2.19C2,10.43,1.89,9.67,1.73,8.9Zm4.53,9.58c-.76,0-1.52,0-2.27,0a.46.46,0,0,1-.35-.3c-.14-.57-.23-1.16-.35-1.76h3Zm0-3.24H4.91c-.48,0-1,0-1.43,0-.32,0-.48-.05-.54-.42-.12-.81-.32-1.6-.5-2.43H6.26Zm5.6,3.21H7.47V16.39h4.39Zm0-3.28H7.49V12.4h4.38Zm0-4H7.47V8.91h4.4Zm5.7,7.27H13.12v-2h4.45Zm1.17-9.32A.33.33,0,0,1,19,8.9c1.42,0,2.84,0,4.31,0-.16.79-.32,1.54-.48,2.31H18.73C18.73,10.47,18.72,9.8,18.74,9.13Zm0,3.27h3.83c-.2.95-.39,1.86-.59,2.83H19a.35.35,0,0,1-.21-.23C18.73,14.14,18.73,13.29,18.73,12.4Zm0,6.08V16.41h3c-.12.58-.21,1.18-.36,1.75a.56.56,0,0,1-.39.31C20.24,18.5,19.51,18.48,18.75,18.48Z"/></svg>