<svg id="Layer_2" data-name="Layer 2" xmlns="http://www.w3.org/2000/svg" viewBox="0 0 396.85 396.85"><defs><style>.cls-1{fill:#e30613;}</style></defs><title>Artboard 10 copy 4</title><path class="cls-1" d="M284.43,290.64a10.3,10.3,0,0,1-8.78,4,.47.47,0,0,0-.19.9c3.22,1.63,9.17,3.49,9.8-4.5A.48.48,0,0,0,284.43,290.64Z"/><path class="cls-1" d="M284.32,298.73a9.1,9.1,0,0,1-7.72,3.49.41.41,0,0,0-.17.79c2.83,1.43,8.06,3.06,8.61-3.95A.41.41,0,0,0,284.32,298.73Z"/><path class="cls-1" d="M95.47,257.06V225.35a6.57,6.57,0,0,1,5.17-6.42l18.8-4.07-.31,6.21s25.87,5.41,37.48,3.84l-19.68,5.39a6.81,6.81,0,0,0-5,6.56v83.75A142.16,142.16,0,0,0,154,330.76V243.94a6.8,6.8,0,0,1,4.84-6.51l2.76-.84c1.35,10.27,1.49,24.32-6,31.09,0,0,14.12-6.45,23.17-.83,0,0,5.22-10.89,4.56-36.8l10-3a6.8,6.8,0,0,1,3.87,0l16.53,4.84c3.82,8.07,7.17,19.42,3.17,30.05,0,0,11.51-7.94,20.83-5.06v77.72a141.54,141.54,0,0,0,21.15-7.3V238a6.82,6.82,0,0,0-4.89-6.53l-20.08-5.88c7.88-.49,32.46-2.28,34.52-5.73l-.21-5.59,21.62,4.69a6.57,6.57,0,0,1,5.17,6.42v23.21c5.34,3.37,23,15.65,23.06,30.61A142.2,142.2,0,1,0,80.3,270.39C83.69,262.65,91.9,258.53,95.47,257.06Zm56.92-150.47c8.5-1.68,14.69-.27,18.08,1,.57-.53,1.15-1,1.73-1.51,8.93-7.31,32.37-7.72,32.37-7.72s2.93-.1,21.21,0c46.64.26,31.8,24.78,31.8,24.78s-12.5,19.12-15.74,29.34c-3.63,11.47.28,25.12,6.27,37.36-6.09,1.38-12.49,3.75-17.33,7.8-12.74,10.7-21.38,8.44-21.38,8.44s-10.28-6-29.2,0c0,0-14.6-3.74-25.09-10.81-5.18-3.5-13.61-5.32-20.83-6.27,11.07-31.51,18.3-50.33,23.8-62.15C148.88,118.36,152.39,106.59,152.39,106.59Z"/><path class="cls-1" d="M209.59,109.1s-14.58-5.23-9.38,7.33C200.21,116.43,199.76,112.24,209.59,109.1Z"/><ellipse class="cls-1" cx="242.34" cy="113.71" rx="7.12" ry="10.99" transform="translate(98.99 339.78) rotate(-82.76)"/><path class="cls-1" d="M242.34,136.9l2.24-4.45s-11.91,2.13-21.52-4.56a.39.39,0,0,0-.53.58C226,132.18,232.89,137.84,242.34,136.9Z"/><path class="cls-1" d="M168.92,122.69c.9-.9-.42-3.68-3-6.22s-5.31-3.85-6.21-3,.43,3.69,3,6.22S168,123.59,168.92,122.69Z"/><path class="cls-1" d="M123.83,278.28a.6.6,0,0,0-.23-1.15,14.12,14.12,0,0,1-11.3-5.65.6.6,0,0,0-1.08.41C111.8,282,119.59,280.09,123.83,278.28Z"/><path class="cls-1" d="M109.56,281.46c.55,9.49,7.86,7.7,11.83,6a.56.56,0,0,0-.21-1.08,13.22,13.22,0,0,1-10.6-5.3A.57.57,0,0,0,109.56,281.46Z"/><path class="cls-1" d="M119.49,294.92a11.29,11.29,0,0,1-9-4.52.49.49,0,0,0-.87.33c.47,8.08,6.69,6.55,10.08,5.1A.47.47,0,0,0,119.49,294.92Z"/><path class="cls-1" d="M110.4,298.55a.43.43,0,0,0-.77.29c.41,7.1,5.88,5.76,8.85,4.48a.42.42,0,0,0-.16-.8A9.9,9.9,0,0,1,110.4,298.55Z"/><path class="cls-1" d="M284.54,281.39a12.11,12.11,0,0,1-10.31,4.66.56.56,0,0,0-.23,1.06c3.78,1.91,10.77,4.1,11.51-5.29A.55.55,0,0,0,284.54,281.39Z"/><path class="cls-1" d="M283.11,271.77a12.91,12.91,0,0,1-11,5,.59.59,0,0,0-.25,1.12c4,2.05,11.48,4.38,12.27-5.62A.59.59,0,0,0,283.11,271.77Z"/></svg>